HIERARCHY
ROOT Hips
{
	OFFSET -40.927921 87.584816 43.994537
	CHANNELS 6 Xposition Yposition Zposition Zrotation Yrotation Xrotation 
	JOINT Spine
	{
		OFFSET 0.000000 8.814246 -2.080107
		CHANNELS 3 Zrotation Yrotation Xrotation
		JOINT Spine1
		{
			OFFSET -0.000000 8.844141 -0.000000
			CHANNELS 3 Zrotation Yrotation Xrotation
			JOINT Spine2
			{
				OFFSET -0.000000 11.682268 0.000000
				CHANNELS 3 Zrotation Yrotation Xrotation
				JOINT Spine3
				{
					OFFSET 0.000000 11.746700 0.000000
					CHANNELS 3 Zrotation Yrotation Xrotation
					JOINT Neck
					{
						OFFSET 0.000000 17.658264 0.000000
						CHANNELS 3 Zrotation Yrotation Xrotation
						JOINT Neck1
						{
							OFFSET -0.000000 5.101515 -0.000000
							CHANNELS 3 Zrotation Yrotation Xrotation
							JOINT Head
							{
								OFFSET 0.000000 5.101515 -0.000000
								CHANNELS 3 Zrotation Yrotation Xrotation
								JOINT HeadEnd
								{
									OFFSET 0.000000 11.655085 0.000000
									CHANNELS 3 Zrotation Yrotation Xrotation
									End Site
									{
										OFFSET 0.000000 0.000000 0.000000
									}
								}
							}
						}
					}
					JOINT RightShoulder
					{
						OFFSET -2.625389 11.175210 -0.000000
						CHANNELS 3 Zrotation Yrotation Xrotation
						JOINT RightArm
						{
							OFFSET 0.000000 10.434715 -0.000000
							CHANNELS 3 Zrotation Yrotation Xrotation
							JOINT RightForeArm
							{
								OFFSET -0.000000 29.628420 -0.000000
								CHANNELS 3 Zrotation Yrotation Xrotation
								JOINT RightHand
								{
									OFFSET 0.000000 22.857611 0.000000
									CHANNELS 3 Zrotation Yrotation Xrotation
									JOINT RightHandThumb1
									{
										OFFSET -2.867323 3.959563 2.944291
										CHANNELS 3 Zrotation Yrotation Xrotation
										JOINT RightHandThumb2
										{
											OFFSET -0.000000 3.350399 0.000000
											CHANNELS 3 Zrotation Yrotation Xrotation
											JOINT RightHandThumb3
											{
												OFFSET -0.000000 3.756509 -0.000000
												CHANNELS 3 Zrotation Yrotation Xrotation
												JOINT RightHandThumb4
												{
													OFFSET -0.000000 3.147345 -0.000000
													CHANNELS 3 Zrotation Yrotation Xrotation
													End Site
													{
														OFFSET 0.000000 0.000000 0.000000
													}
												}
											}
										}
									}
									JOINT RightHandIndex1
									{
										OFFSET -0.086752 10.030893 2.345280
										CHANNELS 3 Zrotation Yrotation Xrotation
										JOINT RightHandIndex2
										{
											OFFSET -0.000000 4.061090 -0.000000
											CHANNELS 3 Zrotation Yrotation Xrotation
											JOINT RightHandIndex3
											{
												OFFSET 0.000000 3.248873 0.000000
												CHANNELS 3 Zrotation Yrotation Xrotation
												JOINT RightHandIndex4
												{
													OFFSET -0.000000 2.639709 -0.000000
													CHANNELS 3 Zrotation Yrotation Xrotation
													End Site
													{
														OFFSET 0.000000 0.000000 0.000000
													}
												}
											}
										}
									}
									JOINT RightHandMiddle1
									{
										OFFSET 0.104102 9.502952 0.006768
										CHANNELS 3 Zrotation Yrotation Xrotation
										JOINT RightHandMiddle2
										{
											OFFSET -0.000000 4.568727 -0.000000
											CHANNELS 3 Zrotation Yrotation Xrotation
											JOINT RightHandMiddle3
											{
												OFFSET -0.000000 3.654981 0.000000
												CHANNELS 3 Zrotation Yrotation Xrotation
												JOINT RightHandMiddle4
												{
													OFFSET 0.000000 2.741236 0.000000
													CHANNELS 3 Zrotation Yrotation Xrotation
													End Site
													{
														OFFSET 0.000000 0.000000 0.000000
													}
												}
											}
										}
									}
									JOINT RightHandRing1
									{
										OFFSET 0.086752 8.921708 -2.267442
										CHANNELS 3 Zrotation Yrotation Xrotation
										JOINT RightHandRing2
										{
											OFFSET -0.000000 4.061090 -0.000000
											CHANNELS 3 Zrotation Yrotation Xrotation
											JOINT RightHandRing3
											{
												OFFSET -0.000000 3.654981 -0.000000
												CHANNELS 3 Zrotation Yrotation Xrotation
												JOINT RightHandRing4
												{
													OFFSET 0.000000 2.741236 0.000000
													CHANNELS 3 Zrotation Yrotation Xrotation
													End Site
													{
														OFFSET 0.000000 0.000000 0.000000
													}
												}
											}
										}
									}
									JOINT RightHandPinky1
									{
										OFFSET -0.173504 7.976997 -4.467199
										CHANNELS 3 Zrotation Yrotation Xrotation
										JOINT RightHandPinky2
										{
											OFFSET -0.000000 3.350399 -0.000000
											CHANNELS 3 Zrotation Yrotation Xrotation
											JOINT RightHandPinky3
											{
												OFFSET -0.000000 2.842763 -0.000000
												CHANNELS 3 Zrotation Yrotation Xrotation
												JOINT RightHandPinky4
												{
													OFFSET 0.000000 2.639709 0.000000
													CHANNELS 3 Zrotation Yrotation Xrotation
													End Site
													{
														OFFSET 0.000000 0.000000 0.000000
													}
												}
											}
										}
									}
									JOINT RightForeArmEnd
									{
										OFFSET 0.000000 0.000000 0.000000
										CHANNELS 3 Zrotation Yrotation Xrotation
										End Site
										{
											OFFSET 0.000000 0.000000 0.000000
										}
									}
								}
								JOINT RightArmEnd
								{
									OFFSET 0.000000 0.000000 0.000000
									CHANNELS 3 Zrotation Yrotation Xrotation
									End Site
									{
										OFFSET 0.000000 0.000000 0.000000
									}
								}
							}
						}
					}
					JOINT LeftShoulder
					{
						OFFSET 2.625389 11.175210 -0.000000
						CHANNELS 3 Zrotation Yrotation Xrotation
						JOINT LeftArm
						{
							OFFSET 0.000000 10.813635 -0.000000
							CHANNELS 3 Zrotation Yrotation Xrotation
							JOINT LeftForeArm
							{
								OFFSET -0.000000 28.724781 0.000000
								CHANNELS 3 Zrotation Yrotation Xrotation
								JOINT LeftHand
								{
									OFFSET 0.644384 25.716167 -0.328871
									CHANNELS 3 Zrotation Yrotation Xrotation
									JOINT LeftHandThumb1
									{
										OFFSET 2.867323 3.959563 2.944291
										CHANNELS 3 Zrotation Yrotation Xrotation
										JOINT LeftHandThumb2
										{
											OFFSET 0.000000 3.350399 -0.000000
											CHANNELS 3 Zrotation Yrotation Xrotation
											JOINT LeftHandThumb3
											{
												OFFSET -0.000000 3.756509 -0.000000
												CHANNELS 3 Zrotation Yrotation Xrotation
												JOINT LeftHandThumb4
												{
													OFFSET -0.000000 3.100000 0.000000
													CHANNELS 3 Zrotation Yrotation Xrotation
													End Site
													{
														OFFSET 0.000000 0.000000 0.000000
													}
												}
											}
										}
									}
									JOINT LeftHandIndex1
									{
										OFFSET 0.086752 10.030893 2.345280
										CHANNELS 3 Zrotation Yrotation Xrotation
										JOINT LeftHandIndex2
										{
											OFFSET -0.000000 4.061090 0.000000
											CHANNELS 3 Zrotation Yrotation Xrotation
											JOINT LeftHandIndex3
											{
												OFFSET -0.000000 3.248873 0.000000
												CHANNELS 3 Zrotation Yrotation Xrotation
												JOINT LeftHandIndex4
												{
													OFFSET 0.000000 2.639709 -0.000000
													CHANNELS 3 Zrotation Yrotation Xrotation
													End Site
													{
														OFFSET 0.000000 0.000000 0.000000
													}
												}
											}
										}
									}
									JOINT LeftHandMiddle1
									{
										OFFSET -0.104102 9.502952 0.006768
										CHANNELS 3 Zrotation Yrotation Xrotation
										JOINT LeftHandMiddle2
										{
											OFFSET -0.000000 4.568727 0.000000
											CHANNELS 3 Zrotation Yrotation Xrotation
											JOINT LeftHandMiddle3
											{
												OFFSET 0.000000 3.654981 0.000000
												CHANNELS 3 Zrotation Yrotation Xrotation
												JOINT LeftHandMiddle4
												{
													OFFSET 0.000000 2.741236 -0.000000
													CHANNELS 3 Zrotation Yrotation Xrotation
													End Site
													{
														OFFSET 0.000000 0.000000 0.000000
													}
												}
											}
										}
									}
									JOINT LeftHandRing1
									{
										OFFSET -0.086752 8.921708 -2.267442
										CHANNELS 3 Zrotation Yrotation Xrotation
										JOINT LeftHandRing2
										{
											OFFSET -0.000000 4.061090 0.000000
											CHANNELS 3 Zrotation Yrotation Xrotation
											JOINT LeftHandRing3
											{
												OFFSET -0.000000 3.654981 0.000000
												CHANNELS 3 Zrotation Yrotation Xrotation
												JOINT LeftHandRing4
												{
													OFFSET -0.000000 2.741236 0.000000
													CHANNELS 3 Zrotation Yrotation Xrotation
													End Site
													{
														OFFSET 0.000000 0.000000 0.000000
													}
												}
											}
										}
									}
									JOINT LeftHandPinky1
									{
										OFFSET 0.173504 7.976997 -4.467199
										CHANNELS 3 Zrotation Yrotation Xrotation
										JOINT LeftHandPinky2
										{
											OFFSET 0.000000 3.350399 -0.000000
											CHANNELS 3 Zrotation Yrotation Xrotation
											JOINT LeftHandPinky3
											{
												OFFSET -0.000000 2.842763 0.000000
												CHANNELS 3 Zrotation Yrotation Xrotation
												JOINT LeftHandPinky4
												{
													OFFSET -0.000000 2.639709 0.000000
													CHANNELS 3 Zrotation Yrotation Xrotation
													End Site
													{
														OFFSET 0.000000 0.000000 0.000000
													}
												}
											}
										}
									}
									JOINT LeftForeArmEnd
									{
										OFFSET 0.000000 0.000000 0.000000
										CHANNELS 3 Zrotation Yrotation Xrotation
										End Site
										{
											OFFSET 0.000000 0.000000 0.000000
										}
									}
								}
								JOINT LeftArmEnd
								{
									OFFSET 0.000000 0.000000 0.000000
									CHANNELS 3 Zrotation Yrotation Xrotation
									End Site
									{
										OFFSET 0.000000 0.000000 0.000000
									}
								}
							}
						}
					}
				}
			}
		}
	}
	JOINT RightUpLeg
	{
		OFFSET -11.289943 -0.000000 -0.000000
		CHANNELS 3 Zrotation Yrotation Xrotation
		JOINT RightLeg
		{
			OFFSET -0.000000 -38.200325 -0.000000
			CHANNELS 3 Zrotation Yrotation Xrotation
			JOINT RightFoot
			{
				OFFSET -0.000000 -39.900856 -0.000000
				CHANNELS 3 Zrotation Yrotation Xrotation
				JOINT RightToeBase
				{
					OFFSET 0.000000 0.000000 15.261641
					CHANNELS 3 Zrotation Yrotation Xrotation
					JOINT RightToeBaseEnd
					{
						OFFSET 0.000000 0.000000 7.370709
						CHANNELS 3 Zrotation Yrotation Xrotation
						End Site
						{
							OFFSET 0.000000 0.000000 0.000000
						}
					}
				}
				JOINT RightLegEnd
				{
					OFFSET 0.000000 0.000000 0.000000
					CHANNELS 3 Zrotation Yrotation Xrotation
					End Site
					{
						OFFSET 0.000000 0.000000 0.000000
					}
				}
			}
			JOINT RightUpLegEnd
			{
				OFFSET 0.000000 0.000000 0.000000
				CHANNELS 3 Zrotation Yrotation Xrotation
				End Site
				{
					OFFSET 0.000000 0.000000 0.000000
				}
			}
		}
	}
	JOINT LeftUpLeg
	{
		OFFSET 11.315661 0.000000 -0.000000
		CHANNELS 3 Zrotation Yrotation Xrotation
		JOINT LeftLeg
		{
			OFFSET -0.000000 -38.200325 -0.000000
			CHANNELS 3 Zrotation Yrotation Xrotation
			JOINT LeftFoot
			{
				OFFSET -0.000000 -39.900856 0.000000
				CHANNELS 3 Zrotation Yrotation Xrotation
				JOINT LeftToeBase
				{
					OFFSET -0.000000 0.000000 15.261641
					CHANNELS 3 Zrotation Yrotation Xrotation
					JOINT LeftToeBaseEnd
					{
						OFFSET -0.000000 -0.000000 7.539996
						CHANNELS 3 Zrotation Yrotation Xrotation
						End Site
						{
							OFFSET 0.000000 0.000000 0.000000
						}
					}
				}
				JOINT LeftLegEnd
				{
					OFFSET 0.000000 0.000000 0.000000
					CHANNELS 3 Zrotation Yrotation Xrotation
					End Site
					{
						OFFSET 0.000000 0.000000 0.000000
					}
				}
			}
			JOINT LeftUpLegEnd
			{
				OFFSET 0.000000 0.000000 0.000000
				CHANNELS 3 Zrotation Yrotation Xrotation
				End Site
				{
					OFFSET 0.000000 0.000000 0.000000
				}
			}
		}
	}
}
MOTION
Frames: 4
Frame Time: 0.016667
15.970304 85.691292 24.132313 -3.575463 -6.387693 -7.768271 -1.330368 -0.071887 5.409085 -0.918750 0.446570 9.909898 0.437907 1.500456 15.442248 -1.340939 0.729336 0.217392 16.813652 -14.660573 2.870816 -3.447507 -12.823143 -10.967275 4.391218 3.972695 -21.508057 0.000000 -0.000000 0.000000 98.755402 -1.430930 8.739310 50.267673 -34.798668 12.092874 1.159287 24.247206 38.015003 2.400059 13.067781 -9.211623 12.135554 -1.950834 39.216908 0.000000 0.000000 -29.520000 0.000000 0.000000 -20.500000 0.000000 -0.000000 -0.000000 23.335588 0.000000 -6.998170 16.334911 0.000000 -0.000000 16.334911 0.000000 -0.000000 -0.000000 -0.000000 -0.000000 22.977621 0.000000 -8.337086 16.084335 0.000000 -0.000000 16.084335 -0.000000 0.000000 -0.000000 -0.000000 -0.000000 22.774820 0.000000 -8.383576 15.942374 -0.000000 -0.000000 15.942374 -0.000000 -0.000000 -0.000000 -0.000000 -0.000000 21.560980 0.000000 -10.431405 15.092686 -0.000000 -0.000000 15.092686 -0.000000 0.000000 -0.000000 -0.000000 -0.000000 0.000000 -0.000000 0.000000 0.000000 0.000000 -0.000000 -91.472954 0.250040 7.812305 -55.533779 34.148460 2.302539 -2.131436 -12.873958 50.279442 3.639297 -24.108717 -15.662219 -10.039283 1.787270 40.137466 -0.000000 -0.000000 -24.480000 0.000000 0.000000 -17.000000 -0.000000 0.000000 -0.000000 -17.326815 0.000000 -10.344695 -12.128771 0.000000 -0.000000 -12.128771 -0.000000 -0.000000 0.000000 0.000000 -0.000000 -17.987068 -0.000000 -11.583993 -12.590947 0.000000 -0.000000 -12.590947 0.000000 0.000000 0.000000 -0.000000 -0.000000 -19.786280 0.000000 -10.661476 -13.850396 0.000000 -0.000000 -13.850396 -0.000000 -0.000000 0.000000 0.000000 -0.000000 -20.282490 0.000000 -10.363712 -14.197743 0.000000 -0.000000 -14.197743 0.000000 -0.000000 0.000000 -0.000000 0.000000 0.000000 0.000000 -0.000000 0.000000 -0.000000 0.000000 -7.976744 -4.636852 -0.603304 -0.158046 -0.118947 53.035042 5.301669 -15.905945 32.763218 6.450119 0.927889 -38.616100 -0.000000 0.000000 0.000000 -0.000000 0.000000 -0.000000 0.000000 -0.000000 0.000000 -3.706035 4.242444 -0.025178 0.014607 0.025917 29.407991 10.360067 11.862445 8.019161 0.276149 1.133168 -28.065029 -0.000000 0.000000 0.000000 0.000000 -0.000000 -0.000000 -0.000000 -0.000000 -0.000000 
15.880026 85.688911 24.201860 -3.724680 -6.915514 -7.816922 -1.369775 -0.041657 5.422187 -1.016003 0.469794 9.926996 0.634407 1.374473 15.491609 -1.287023 0.687902 0.227142 17.031101 -14.594807 2.789217 -3.420309 -12.667242 -10.994429 4.346684 3.989724 -21.524925 -0.000000 -0.000000 0.000000 98.756561 -1.423841 8.691142 50.391346 -34.672920 11.858121 1.130115 24.360970 38.046471 2.351835 13.001151 -9.162109 12.135554 -1.950834 39.216908 -0.000000 -0.000000 -29.520000 0.000000 0.000000 -20.500000 0.000000 -0.000000 -0.000000 23.308130 -0.000000 -6.863696 16.315691 0.000000 0.000000 16.315691 -0.000000 -0.000000 -0.000000 0.000000 -0.000000 22.962021 0.000000 -8.211050 16.073414 0.000000 -0.000000 16.073414 0.000000 -0.000000 -0.000000 -0.000000 -0.000000 22.782482 0.000000 -8.288076 15.947737 -0.000000 -0.000000 15.947737 -0.000000 -0.000000 0.000000 -0.000000 -0.000000 21.593929 -0.000000 -10.385910 15.115750 0.000000 0.000000 15.115750 -0.000000 -0.000000 0.000000 0.000000 0.000000 -0.000000 -0.000000 0.000000 0.000000 0.000000 0.000000 -91.429298 0.244832 7.864593 -55.647594 34.103779 2.124146 -2.181045 -12.773368 50.218868 3.615324 -24.088192 -15.691505 -10.039283 1.787270 40.137466 0.000000 -0.000000 -24.480000 0.000000 -0.000000 -17.000000 -0.000000 0.000000 0.000000 -17.558674 -0.000000 -10.288559 -12.291072 -0.000000 -0.000000 -12.291072 -0.000000 0.000000 0.000000 0.000000 -0.000000 -18.162632 0.000000 -11.522141 -12.713842 -0.000000 0.000000 -12.713842 0.000000 0.000000 0.000000 -0.000000 -0.000000 -19.841358 0.000000 -10.596088 -13.888950 -0.000000 -0.000000 -13.888950 0.000000 -0.000000 0.000000 -0.000000 -0.000000 -20.216944 0.000000 -10.294575 -14.151860 0.000000 -0.000000 -14.151860 0.000000 0.000000 0.000000 0.000000 -0.000000 0.000000 0.000000 -0.000000 0.000000 -0.000000 0.000000 -8.099277 -4.685679 -0.756756 -0.194323 -0.150106 52.316635 5.828733 -15.408947 31.499681 6.346175 1.074373 -38.228878 -0.000000 -0.000000 -0.000000 -0.000000 -0.000000 -0.000000 0.000000 -0.000000 0.000000 -3.488775 4.458412 0.054629 0.025240 0.044460 29.584286 10.190703 12.110929 7.874198 0.269027 1.139729 -28.076111 0.000000 0.000000 0.000000 0.000000 -0.000000 -0.000000 -0.000000 -0.000000 -0.000000 
15.782869 85.683281 24.278614 -3.873961 -7.469684 -7.857352 -1.395283 -0.010734 5.414716 -1.109497 0.493805 9.956271 0.825058 1.244344 15.506350 -1.240670 0.653836 0.243399 17.202986 -14.477937 2.713989 -3.405772 -12.424516 -10.998109 4.294438 3.983395 -21.520622 -0.000000 -0.000000 0.000000 98.753647 -1.418587 8.658965 50.584431 -34.491226 11.558082 1.121900 24.410749 38.050720 2.275411 13.016209 -9.050000 12.135554 -1.950834 39.216908 -0.000000 -0.000000 -29.520000 -0.000000 0.000000 -20.500000 0.000000 -0.000000 -0.000000 23.316439 0.000000 -6.831479 16.321507 -0.000000 0.000000 16.321507 -0.000000 -0.000000 0.000000 0.000000 0.000000 22.964380 -0.000000 -8.170570 16.075066 0.000000 0.000000 16.075066 0.000000 0.000000 0.000000 0.000000 -0.000000 22.772114 0.000000 -8.237147 15.940479 -0.000000 -0.000000 15.940479 -0.000000 -0.000000 -0.000000 -0.000000 -0.000000 21.575232 0.000000 -10.334649 15.102662 0.000000 -0.000000 15.102662 0.000000 -0.000000 -0.000000 0.000000 -0.000000 -0.000000 -0.000000 0.000000 0.000000 0.000000 0.000000 -91.405777 0.242315 7.919130 -55.726994 34.085060 1.941142 -2.229359 -12.655413 50.153179 3.600875 -24.116486 -15.712091 -10.039283 1.787270 40.137466 -0.000000 -0.000000 -24.480000 -0.000000 0.000000 -17.000000 0.000000 0.000000 0.000000 -17.778160 -0.000000 -10.262545 -12.444712 -0.000000 -0.000000 -12.444712 -0.000000 -0.000000 0.000000 0.000000 0.000000 -18.332542 -0.000000 -11.474727 -12.832780 0.000000 -0.000000 -12.832780 0.000000 0.000000 0.000000 0.000000 -0.000000 -19.905546 -0.000000 -10.522303 -13.933883 0.000000 0.000000 -13.933883 -0.000000 0.000000 0.000000 -0.000000 -0.000000 -20.173693 -0.000000 -10.199636 -14.121585 -0.000000 -0.000000 -14.121585 0.000000 0.000000 0.000000 0.000000 0.000000 0.000000 0.000000 -0.000000 0.000000 -0.000000 0.000000 -8.228477 -4.826519 -0.906972 -0.212079 -0.169817 51.315239 6.040034 -15.277878 30.498781 6.535572 1.361742 -38.294636 -0.000000 0.000000 -0.000000 -0.000000 0.000000 -0.000000 -0.000000 0.000000 0.000000 -3.266134 4.693311 0.130654 0.036787 0.064296 29.775564 10.009575 12.367181 7.715236 0.259015 1.145740 -28.087729 -0.000000 0.000000 0.000000 0.000000 -0.000000 -0.000000 -0.000000 0.000000 -0.000000 
15.679399 85.674767 24.363754 -3.999279 -8.041405 -7.903912 -1.425802 0.019526 5.400542 -1.198071 0.519091 9.980076 0.997514 1.116184 15.508098 -1.209521 0.625357 0.285001 17.356901 -14.372572 2.635175 -3.395245 -12.166141 -10.994424 4.256043 3.953960 -21.509644 0.000000 0.000000 0.000000 98.743118 -1.413198 8.633791 50.810268 -34.283195 11.251184 1.122983 24.414217 38.028790 2.229548 12.957003 -8.971977 12.135554 -1.950834 39.216908 0.000000 0.000000 -29.520000 0.000000 0.000000 -20.500000 0.000000 0.000000 -0.000000 23.247103 0.000000 -6.817536 16.272972 -0.000000 -0.000000 16.272972 0.000000 -0.000000 -0.000000 0.000000 -0.000000 22.892141 0.000000 -8.137593 16.024500 -0.000000 -0.000000 16.024500 0.000000 0.000000 0.000000 0.000000 0.000000 22.690371 0.000000 -8.177541 15.883259 -0.000000 0.000000 15.883259 0.000000 0.000000 0.000000 -0.000000 0.000000 21.489452 0.000000 -10.257656 15.042617 -0.000000 -0.000000 15.042617 -0.000000 -0.000000 0.000000 0.000000 0.000000 0.000000 -0.000000 -0.000000 -0.000000 0.000000 0.000000 -91.378654 0.238847 7.960343 -55.780655 34.074341 1.782905 -2.265160 -12.537935 50.099258 3.620311 -24.198439 -15.748603 -10.039283 1.787270 40.137466 -0.000000 -0.000000 -24.480000 0.000000 0.000000 -17.000000 -0.000000 -0.000000 -0.000000 -18.005167 0.000000 -10.331008 -12.603618 -0.000000 0.000000 -12.603618 -0.000000 -0.000000 0.000000 0.000000 0.000000 -18.521891 0.000000 -11.508030 -12.965323 -0.000000 -0.000000 -12.965323 -0.000000 -0.000000 0.000000 -0.000000 -0.000000 -20.020672 0.000000 -10.498802 -14.014471 -0.000000 -0.000000 -14.014471 0.000000 0.000000 0.000000 0.000000 -0.000000 -20.211632 0.000000 -10.126034 -14.148142 -0.000000 -0.000000 -14.148142 -0.000000 -0.000000 0.000000 0.000000 0.000000 0.000000 0.000000 -0.000000 0.000000 -0.000000 0.000000 -8.375426 -4.971773 -0.984670 -0.218921 -0.183564 50.021137 6.204593 -15.642236 29.404736 6.556761 1.573005 -38.272556 -0.000000 -0.000000 0.000000 0.000000 -0.000000 -0.000000 -0.000000 -0.000000 0.000000 -3.059759 4.950282 0.221264 0.048507 0.084133 29.964724 9.821742 12.619632 7.559070 0.245605 1.151860 -28.108877 0.000000 0.000000 0.000000 0.000000 -0.000000 -0.000000 0.000000 0.000000 -0.000000 
